<mxfile host="app.diagrams.net" agent="Mozilla/5.0 (Windows NT 10.0; Win64; x64) AppleWebKit/537.36 (KHTML, like Gecko) Chrome/138.0.0.0 Safari/537.36" version="28.0.7">
  <diagram name="Page-1" id="hHWHnsxokW3kDAro0Tdl">
    <mxGraphModel dx="1317" dy="695" grid="1" gridSize="10" guides="1" tooltips="1" connect="1" arrows="1" fold="1" page="1" pageScale="1" pageWidth="1169" pageHeight="827" math="0" shadow="0">
      <root>
        <mxCell id="0" />
        <mxCell id="1" parent="0" />
        <mxCell id="5zW4jAHzgYJ2B7a12A-Z-12" value="" style="endArrow=none;dashed=1;html=1;dashPattern=1 3;strokeWidth=2;rounded=0;" edge="1" parent="1" source="5zW4jAHzgYJ2B7a12A-Z-11" target="1lgSarpmrvdroJrzYnV4-7">
          <mxGeometry width="50" height="50" relative="1" as="geometry">
            <mxPoint x="130" y="100" as="sourcePoint" />
            <mxPoint x="210" y="100" as="targetPoint" />
            <Array as="points">
              <mxPoint x="240" y="100" />
              <mxPoint x="240" y="220" />
              <mxPoint x="361" y="220" />
            </Array>
          </mxGeometry>
        </mxCell>
        <mxCell id="1lgSarpmrvdroJrzYnV4-23" value="" style="endArrow=classic;html=1;rounded=0;strokeWidth=2;strokeColor=#00CC00;entryX=1;entryY=0.5;entryDx=0;entryDy=0;" parent="1" edge="1" target="1lgSarpmrvdroJrzYnV4-3">
          <mxGeometry width="50" height="50" relative="1" as="geometry">
            <mxPoint x="440" y="80" as="sourcePoint" />
            <mxPoint x="780" y="100" as="targetPoint" />
            <Array as="points">
              <mxPoint x="520" y="80" />
              <mxPoint x="520" y="180" />
              <mxPoint x="880" y="180" />
              <mxPoint x="880" y="100" />
            </Array>
          </mxGeometry>
        </mxCell>
        <mxCell id="5zW4jAHzgYJ2B7a12A-Z-1" value="" style="endArrow=classic;html=1;rounded=0;strokeWidth=2;strokeColor=#00CC00;entryX=1;entryY=0.5;entryDx=0;entryDy=0;" edge="1" parent="1" target="1lgSarpmrvdroJrzYnV4-3">
          <mxGeometry width="50" height="50" relative="1" as="geometry">
            <mxPoint x="440" y="330" as="sourcePoint" />
            <mxPoint x="790" y="100" as="targetPoint" />
            <Array as="points">
              <mxPoint x="520" y="330" />
              <mxPoint x="520" y="180" />
              <mxPoint x="880" y="180" />
              <mxPoint x="880" y="100" />
            </Array>
          </mxGeometry>
        </mxCell>
        <mxCell id="1lgSarpmrvdroJrzYnV4-1" value="VLAN875" style="swimlane;whiteSpace=wrap;html=1;" parent="1" vertex="1">
          <mxGeometry x="40" y="480" width="400" height="120" as="geometry" />
        </mxCell>
        <mxCell id="1lgSarpmrvdroJrzYnV4-4" value="HKVEDMCAP001P&lt;div&gt;10.0.75.100&lt;/div&gt;" style="sketch=0;pointerEvents=1;shadow=0;dashed=0;html=1;strokeColor=none;fillColor=#005F4B;labelPosition=center;verticalLabelPosition=bottom;verticalAlign=top;align=center;outlineConnect=0;shape=mxgraph.veeam2.vm_with_a_snapshot;" parent="1lgSarpmrvdroJrzYnV4-1" vertex="1">
          <mxGeometry x="300" y="39" width="42" height="42" as="geometry" />
        </mxCell>
        <mxCell id="5zW4jAHzgYJ2B7a12A-Z-15" value="PDA&lt;br&gt;10.0.75.61" style="html=1;verticalLabelPosition=bottom;align=center;labelBackgroundColor=#ffffff;verticalAlign=top;strokeWidth=2;strokeColor=#0080F0;shadow=0;dashed=0;shape=mxgraph.ios7.icons.smartphone;" vertex="1" parent="1lgSarpmrvdroJrzYnV4-1">
          <mxGeometry x="191" y="45" width="18" height="30" as="geometry" />
        </mxCell>
        <mxCell id="5zW4jAHzgYJ2B7a12A-Z-16" value="Terminal&lt;br&gt;10.0.75.51" style="verticalLabelPosition=bottom;html=1;verticalAlign=top;align=center;strokeColor=none;fillColor=#00BEF2;shape=mxgraph.azure.tablet;pointerEvents=1;" vertex="1" parent="1lgSarpmrvdroJrzYnV4-1">
          <mxGeometry x="50" y="41.25" width="50" height="37.5" as="geometry" />
        </mxCell>
        <mxCell id="1lgSarpmrvdroJrzYnV4-2" value="VLAN341" style="swimlane;whiteSpace=wrap;html=1;" parent="1" vertex="1">
          <mxGeometry x="160" y="240" width="280" height="200" as="geometry" />
        </mxCell>
        <mxCell id="1lgSarpmrvdroJrzYnV4-6" value="HKVEDMCPC001P&lt;div&gt;(LG Dept)&lt;br&gt;&lt;div&gt;10.3.141.101&lt;/div&gt;&lt;/div&gt;" style="sketch=0;pointerEvents=1;shadow=0;dashed=0;html=1;strokeColor=none;fillColor=#005F4B;labelPosition=center;verticalLabelPosition=bottom;verticalAlign=top;align=center;outlineConnect=0;shape=mxgraph.veeam2.vm_with_a_snapshot;" parent="1lgSarpmrvdroJrzYnV4-2" vertex="1">
          <mxGeometry x="60" y="59" width="42" height="42" as="geometry" />
        </mxCell>
        <mxCell id="1lgSarpmrvdroJrzYnV4-7" value="HKVEDMCP002P&lt;br&gt;(Production Dept)&lt;br&gt;&lt;div&gt;10.3.141.102&lt;/div&gt;" style="sketch=0;pointerEvents=1;shadow=0;dashed=0;html=1;strokeColor=none;fillColor=#005F4B;labelPosition=center;verticalLabelPosition=bottom;verticalAlign=top;align=center;outlineConnect=0;shape=mxgraph.veeam2.vm_with_a_snapshot;" parent="1lgSarpmrvdroJrzYnV4-2" vertex="1">
          <mxGeometry x="180" y="59" width="42" height="41" as="geometry" />
        </mxCell>
        <mxCell id="1lgSarpmrvdroJrzYnV4-3" value="DMZ" style="swimlane;whiteSpace=wrap;html=1;" parent="1" vertex="1">
          <mxGeometry x="560" y="40" width="240" height="120" as="geometry" />
        </mxCell>
        <mxCell id="1lgSarpmrvdroJrzYnV4-5" value="HKVEDMCWB001P&lt;div&gt;172.16.10.41&lt;/div&gt;" style="sketch=0;pointerEvents=1;shadow=0;dashed=0;html=1;strokeColor=none;fillColor=#005F4B;labelPosition=center;verticalLabelPosition=bottom;verticalAlign=top;align=center;outlineConnect=0;shape=mxgraph.veeam2.vm_with_a_snapshot;" parent="1lgSarpmrvdroJrzYnV4-3" vertex="1">
          <mxGeometry x="99" y="39" width="42" height="42" as="geometry" />
        </mxCell>
        <mxCell id="1lgSarpmrvdroJrzYnV4-9" value="" style="edgeStyle=none;rounded=0;html=1;jettySize=auto;orthogonalLoop=1;strokeColor=#A50040;strokeWidth=2;fontColor=#000000;jumpStyle=none;endArrow=none;endFill=0;startArrow=none;dashed=1;fillColor=#d80073;" parent="1" edge="1">
          <mxGeometry width="100" relative="1" as="geometry">
            <mxPoint x="500" y="40" as="sourcePoint" />
            <mxPoint x="500" y="760" as="targetPoint" />
          </mxGeometry>
        </mxCell>
        <mxCell id="1lgSarpmrvdroJrzYnV4-10" value="Public Internet" style="sketch=0;pointerEvents=1;shadow=0;dashed=0;html=1;strokeColor=#82b366;fillColor=#00CC00;labelPosition=center;verticalLabelPosition=bottom;verticalAlign=top;align=center;outlineConnect=0;shape=mxgraph.veeam2.cloud;" parent="1" vertex="1">
          <mxGeometry x="1020" y="54.5" width="140" height="91" as="geometry" />
        </mxCell>
        <mxCell id="1lgSarpmrvdroJrzYnV4-11" value="" style="edgeStyle=none;rounded=0;html=1;jettySize=auto;orthogonalLoop=1;strokeColor=#b85450;strokeWidth=2;fontColor=#000000;jumpStyle=none;endArrow=none;endFill=0;startArrow=none;dashed=1;fillColor=#f8cecc;" parent="1" edge="1">
          <mxGeometry width="100" relative="1" as="geometry">
            <mxPoint x="860" y="40" as="sourcePoint" />
            <mxPoint x="860" y="760" as="targetPoint" />
          </mxGeometry>
        </mxCell>
        <mxCell id="1lgSarpmrvdroJrzYnV4-12" value="" style="edgeStyle=none;rounded=0;html=1;jettySize=auto;orthogonalLoop=1;strokeColor=#00CC00;strokeWidth=2;fontColor=#000000;jumpStyle=none;endArrow=block;endFill=1;startArrow=none;" parent="1" source="1lgSarpmrvdroJrzYnV4-10" edge="1">
          <mxGeometry width="100" relative="1" as="geometry">
            <mxPoint x="940" y="100" as="sourcePoint" />
            <mxPoint x="800" y="100" as="targetPoint" />
            <Array as="points" />
          </mxGeometry>
        </mxCell>
        <mxCell id="1lgSarpmrvdroJrzYnV4-13" value="HTTPS" style="edgeLabel;html=1;align=center;verticalAlign=middle;resizable=0;points=[];" parent="1lgSarpmrvdroJrzYnV4-12" vertex="1" connectable="0">
          <mxGeometry x="-0.172" y="-1" relative="1" as="geometry">
            <mxPoint x="-89" y="1" as="offset" />
          </mxGeometry>
        </mxCell>
        <mxCell id="1lgSarpmrvdroJrzYnV4-14" value="" style="edgeStyle=none;rounded=0;html=1;jettySize=auto;orthogonalLoop=1;strokeColor=#6D1F00;strokeWidth=2;fontColor=#000000;jumpStyle=none;endArrow=block;endFill=1;startArrow=none;entryX=1;entryY=0.5;entryDx=0;entryDy=0;fillColor=#a0522d;exitX=1;exitY=0.75;exitDx=0;exitDy=0;" parent="1" source="1lgSarpmrvdroJrzYnV4-2" target="1lgSarpmrvdroJrzYnV4-1" edge="1">
          <mxGeometry width="100" relative="1" as="geometry">
            <mxPoint x="440" y="400" as="sourcePoint" />
            <mxPoint x="660" y="480" as="targetPoint" />
            <Array as="points">
              <mxPoint x="520" y="390" />
              <mxPoint x="520" y="540" />
            </Array>
          </mxGeometry>
        </mxCell>
        <mxCell id="1lgSarpmrvdroJrzYnV4-15" value="TCP 80" style="edgeLabel;html=1;align=center;verticalAlign=middle;resizable=0;points=[];rotation=90;" parent="1lgSarpmrvdroJrzYnV4-14" vertex="1" connectable="0">
          <mxGeometry x="-0.8284" y="1" relative="1" as="geometry">
            <mxPoint x="65" y="71" as="offset" />
          </mxGeometry>
        </mxCell>
        <mxCell id="1lgSarpmrvdroJrzYnV4-16" value="nonGMP Network" style="swimlane;whiteSpace=wrap;html=1;" parent="1" vertex="1">
          <mxGeometry x="40" y="40" width="400" height="160" as="geometry" />
        </mxCell>
        <mxCell id="1lgSarpmrvdroJrzYnV4-19" value="FP Staff" style="sketch=0;pointerEvents=1;shadow=0;dashed=0;html=1;strokeColor=none;fillColor=#005F4B;labelPosition=center;verticalLabelPosition=bottom;verticalAlign=top;align=center;outlineConnect=0;shape=mxgraph.veeam2.laptop;" parent="1lgSarpmrvdroJrzYnV4-16" vertex="1">
          <mxGeometry x="300" y="46" width="48" height="28.000000000000004" as="geometry" />
        </mxCell>
        <mxCell id="5zW4jAHzgYJ2B7a12A-Z-11" value="Zebra ZD420&lt;br&gt;10.3.145.X" style="image;aspect=fixed;html=1;points=[];align=center;fontSize=12;image=img/lib/azure2/other/Defender_Industrial_Printer.svg;" vertex="1" parent="1lgSarpmrvdroJrzYnV4-16">
          <mxGeometry x="40" y="37.5" width="45" height="45" as="geometry" />
        </mxCell>
        <mxCell id="5zW4jAHzgYJ2B7a12A-Z-8" value="HKVCANUNI001P&lt;br&gt;10.3.130.226" style="sketch=0;pointerEvents=1;shadow=0;dashed=0;html=1;strokeColor=none;fillColor=#005F4B;labelPosition=center;verticalLabelPosition=bottom;verticalAlign=top;align=center;outlineConnect=0;shape=mxgraph.veeam2.vm_with_a_snapshot;" vertex="1" parent="1lgSarpmrvdroJrzYnV4-16">
          <mxGeometry x="179" y="39" width="42" height="42" as="geometry" />
        </mxCell>
        <mxCell id="1lgSarpmrvdroJrzYnV4-20" value="Pola" style="text;html=1;align=center;verticalAlign=middle;whiteSpace=wrap;rounded=0;fontStyle=1" parent="1" vertex="1">
          <mxGeometry x="450" y="10" width="100" height="30" as="geometry" />
        </mxCell>
        <mxCell id="1lgSarpmrvdroJrzYnV4-22" value="Fortigate" style="text;html=1;align=center;verticalAlign=middle;whiteSpace=wrap;rounded=0;fontStyle=1" parent="1" vertex="1">
          <mxGeometry x="810" y="10" width="100" height="30" as="geometry" />
        </mxCell>
        <mxCell id="1lgSarpmrvdroJrzYnV4-27" value="End Point Management" style="sketch=0;pointerEvents=1;shadow=0;dashed=0;html=1;strokeColor=#d79b00;fillColor=#ffe6cc;labelPosition=center;verticalLabelPosition=bottom;verticalAlign=top;align=center;outlineConnect=0;shape=mxgraph.veeam2.cloud;" parent="1" vertex="1">
          <mxGeometry x="1020" y="200" width="140" height="91" as="geometry" />
        </mxCell>
        <mxCell id="1lgSarpmrvdroJrzYnV4-28" value="Microsoft MDM" style="sketch=0;pointerEvents=1;shadow=0;dashed=0;html=1;strokeColor=#b85450;fillColor=#0000CC;labelPosition=center;verticalLabelPosition=bottom;verticalAlign=top;align=center;outlineConnect=0;shape=mxgraph.veeam2.cloud;" parent="1" vertex="1">
          <mxGeometry x="1020" y="349" width="140" height="91" as="geometry" />
        </mxCell>
        <mxCell id="1lgSarpmrvdroJrzYnV4-30" value="" style="edgeStyle=none;rounded=0;html=1;jettySize=auto;orthogonalLoop=1;strokeColor=#d79b00;strokeWidth=2;fontColor=#000000;jumpStyle=none;endArrow=block;endFill=1;startArrow=none;fillColor=#ffe6cc;" parent="1" edge="1">
          <mxGeometry width="100" relative="1" as="geometry">
            <mxPoint x="440" y="350" as="sourcePoint" />
            <mxPoint x="1010" y="270" as="targetPoint" />
            <Array as="points">
              <mxPoint x="920" y="350" />
              <mxPoint x="920" y="270" />
            </Array>
          </mxGeometry>
        </mxCell>
        <mxCell id="1lgSarpmrvdroJrzYnV4-32" value="" style="edgeStyle=none;rounded=0;html=1;jettySize=auto;orthogonalLoop=1;strokeColor=#d79b00;strokeWidth=2;fontColor=#000000;jumpStyle=none;endArrow=block;endFill=1;startArrow=none;fillColor=#ffe6cc;" parent="1" edge="1">
          <mxGeometry width="100" relative="1" as="geometry">
            <mxPoint x="800" y="120" as="sourcePoint" />
            <mxPoint x="1010" y="270" as="targetPoint" />
            <Array as="points">
              <mxPoint x="920" y="120" />
              <mxPoint x="920" y="270" />
            </Array>
          </mxGeometry>
        </mxCell>
        <mxCell id="1lgSarpmrvdroJrzYnV4-33" value="" style="edgeStyle=none;rounded=0;html=1;jettySize=auto;orthogonalLoop=1;strokeColor=#0000CC;strokeWidth=2;fontColor=#000000;jumpStyle=none;endArrow=block;endFill=1;startArrow=none;fillColor=#f8cecc;" parent="1" edge="1">
          <mxGeometry width="100" relative="1" as="geometry">
            <mxPoint x="440" y="370" as="sourcePoint" />
            <mxPoint x="1010" y="400" as="targetPoint" />
            <Array as="points">
              <mxPoint x="900" y="370" />
              <mxPoint x="900" y="400" />
            </Array>
          </mxGeometry>
        </mxCell>
        <mxCell id="1lgSarpmrvdroJrzYnV4-34" value="" style="edgeStyle=none;rounded=0;html=1;jettySize=auto;orthogonalLoop=1;strokeColor=#0000CC;strokeWidth=2;fontColor=#000000;jumpStyle=none;endArrow=block;endFill=1;startArrow=none;fillColor=#f8cecc;" parent="1" edge="1">
          <mxGeometry width="100" relative="1" as="geometry">
            <mxPoint x="800" y="80" as="sourcePoint" />
            <mxPoint x="1010" y="400" as="targetPoint" />
            <Array as="points">
              <mxPoint x="900" y="80" />
              <mxPoint x="900" y="400" />
            </Array>
          </mxGeometry>
        </mxCell>
        <mxCell id="oMJwZCUIaVvIRo2sdAal-2" value="VLAN800" style="swimlane;whiteSpace=wrap;html=1;" parent="1" vertex="1">
          <mxGeometry x="160" y="640" width="280" height="120" as="geometry" />
        </mxCell>
        <mxCell id="oMJwZCUIaVvIRo2sdAal-3" value="10.0.0.5" style="sketch=0;pointerEvents=1;shadow=0;dashed=0;html=1;strokeColor=none;fillColor=#005F4B;labelPosition=center;verticalLabelPosition=bottom;verticalAlign=top;align=center;outlineConnect=0;shape=mxgraph.veeam2.vm_with_a_snapshot;" parent="oMJwZCUIaVvIRo2sdAal-2" vertex="1">
          <mxGeometry x="122" y="39" width="42" height="42" as="geometry" />
        </mxCell>
        <mxCell id="1lgSarpmrvdroJrzYnV4-17" value="" style="edgeStyle=none;rounded=0;html=1;jettySize=auto;orthogonalLoop=1;strokeColor=#404040;strokeWidth=2;fontColor=#000000;jumpStyle=none;endArrow=block;endFill=1;startArrow=none;entryX=1;entryY=0.25;entryDx=0;entryDy=0;" parent="1" target="1lgSarpmrvdroJrzYnV4-2" edge="1">
          <mxGeometry width="100" relative="1" as="geometry">
            <mxPoint x="440" y="100" as="sourcePoint" />
            <mxPoint x="363.65999999999997" y="216" as="targetPoint" />
            <Array as="points">
              <mxPoint x="480" y="100" />
              <mxPoint x="480" y="290" />
            </Array>
          </mxGeometry>
        </mxCell>
        <mxCell id="1lgSarpmrvdroJrzYnV4-18" value="RDP" style="edgeLabel;html=1;align=center;verticalAlign=middle;resizable=0;points=[];rotation=90;" parent="1lgSarpmrvdroJrzYnV4-17" vertex="1" connectable="0">
          <mxGeometry x="-0.263" y="-2" relative="1" as="geometry">
            <mxPoint x="-8" y="40" as="offset" />
          </mxGeometry>
        </mxCell>
        <mxCell id="5zW4jAHzgYJ2B7a12A-Z-17" value="" style="edgeStyle=none;rounded=0;html=1;jettySize=auto;orthogonalLoop=1;strokeColor=#404040;strokeWidth=2;fontColor=#000000;jumpStyle=none;endArrow=block;endFill=1;startArrow=none;" edge="1" parent="1">
          <mxGeometry width="100" relative="1" as="geometry">
            <mxPoint x="440" y="560" as="sourcePoint" />
            <mxPoint x="440" y="720" as="targetPoint" />
            <Array as="points">
              <mxPoint x="480" y="560" />
              <mxPoint x="480" y="720" />
            </Array>
          </mxGeometry>
        </mxCell>
        <mxCell id="5zW4jAHzgYJ2B7a12A-Z-18" value="NTP/DNS" style="edgeLabel;html=1;align=center;verticalAlign=middle;resizable=0;points=[];rotation=90;" vertex="1" connectable="0" parent="5zW4jAHzgYJ2B7a12A-Z-17">
          <mxGeometry x="-0.8284" y="1" relative="1" as="geometry">
            <mxPoint x="9" y="71" as="offset" />
          </mxGeometry>
        </mxCell>
      </root>
    </mxGraphModel>
  </diagram>
</mxfile>
